<?xml version="1.0" encoding="iso-8859-1"?>
<!-- Generator: Adobe Illustrator 19.0.0, SVG Export Plug-In . SVG Version: 6.00 Build 0)  -->
<svg version="1.1" id="Layer_1" xmlns="http://www.w3.org/2000/svg" xmlns:xlink="http://www.w3.org/1999/xlink" x="0px" y="0px"
	 viewBox="0 0 511.999 511.999" style="enable-background:new 0 0 511.999 511.999;" xml:space="preserve">
<path style="fill:#874D20;" d="M358.871,415.997v85.993c0,5.529-4.503,10.009-10.06,10.009c-5.556,0-10.06-4.481-10.06-10.009
	v-85.993c0-5.529,4.503-10.008,10.06-10.008C354.367,405.988,358.871,410.469,358.871,415.997z M302.133,405.988
	c-5.556,0-10.06,4.481-10.06,10.008v85.993c0,5.529,4.503,10.008,10.06,10.008s10.06-4.481,10.06-10.008v-85.993
	C312.193,410.469,307.689,405.988,302.133,405.988z"/>
<path style="fill:#0D3131;" d="M312.193,501.987c0,5.529-4.503,10.009-10.06,10.009h-33.042c-5.556,0-10.06-4.481-10.06-10.009
	s4.503-10.008,10.06-10.008h33.042C307.689,491.977,312.193,496.458,312.193,501.987z M381.854,491.977h-33.042
	c-5.556,0-10.06,4.481-10.06,10.009s4.503,10.008,10.06,10.008h33.042c5.556,0,10.06-4.481,10.06-10.008
	S387.41,491.977,381.854,491.977z"/>
<path style="fill:#FFBB5E;" d="M262.998,344.968l-0.982,32.658c-0.167,5.526-4.805,9.857-10.356,9.705
	c-5.553-0.165-9.921-4.778-9.755-10.303l0.964-32.059H262.998z M387.945,344.968l0.983,32.658c0.164,5.424,4.632,9.709,10.05,9.709
	c0.101,0,0.204-0.001,0.307-0.004c5.553-0.165,9.921-4.778,9.754-10.305l-0.965-32.058H387.945z"/>
<path style="fill:#97BAA8;" d="M408.393,355.575c0.167,5.526-4.201,10.14-9.754,10.305c-5.597,0.129-10.19-4.179-10.356-9.705
	l-2.222-73.785c-0.287-9.57-3.15-37.291-25.848-46.249v144.038h-69.481V236.113c-22.695,8.93-25.565,36.698-25.853,46.276
	l-2.217,73.786c-0.164,5.423-4.634,9.709-10.05,9.709c-0.102,0-0.204-0.001-0.306-0.004c-5.553-0.165-9.921-4.778-9.755-10.303
	l2.217-73.786c1.241-41.251,25.288-68.139,61.266-68.502l28.451,0.002l10.313-0.003c36.086,0.365,60.134,27.253,61.371,68.504
	L408.393,355.575z"/>
<path style="fill:#FFCE76;" d="M325.471,102.636c21.358,0,38.67,17.227,38.67,38.478c0,21.25-17.312,38.478-38.67,38.478
	s-38.671-17.227-38.671-38.478C286.801,119.862,304.113,102.636,325.471,102.636L325.471,102.636z"/>
<path style="fill:#FFBB5E;" d="M364.142,141.112c0,21.25-17.312,38.478-38.67,38.478c-19.387,0-35.438-14.196-38.236-32.709
	c6.689,5.505,15.27,8.813,24.629,8.813c21.358,0,38.67-17.227,38.67-38.478c0-1.961-0.149-3.887-0.434-5.768
	C358.677,118.507,364.142,129.174,364.142,141.112z"/>
<path style="fill:#CAEEC5;" d="M232.88,99.94l6.183,35.485l-35.665-6.15c-25.907,13.352-58.558,9.219-80.289-12.404
	c-26.871-26.735-26.871-70.084,0-96.819c26.871-26.736,70.437-26.736,97.308,0C242.148,41.673,246.3,74.161,232.88,99.94z"/>
<path style="fill:#5B7F81;" d="M198.728,82.584c4.041,3.792,4.23,10.126,0.419,14.149c-1.979,2.087-4.648,3.142-7.32,3.142
	c-2.477,0-4.956-0.904-6.9-2.726c-3.351-3.144-8.149-4.947-13.163-4.947s-9.814,1.803-13.166,4.949
	c-4.043,3.789-10.409,3.604-14.22-0.419c-3.81-4.023-3.622-10.358,0.421-14.149c7.15-6.706,16.727-10.399,26.966-10.399
	C182.003,72.184,191.579,75.877,198.728,82.584z M150.404,58.092h0.987c5.556,0,10.06-4.481,10.06-10.008
	s-4.503-10.008-10.06-10.008h-0.987c-5.556,0-10.06,4.481-10.06,10.008S144.848,58.092,150.404,58.092z M192.135,58.092h0.985
	c5.556,0,10.06-4.481,10.06-10.008s-4.503-10.008-10.06-10.008h-0.985c-5.556,0-10.06,4.481-10.06,10.008
	S186.58,58.092,192.135,58.092z"/>
<g>
</g>
<g>
</g>
<g>
</g>
<g>
</g>
<g>
</g>
<g>
</g>
<g>
</g>
<g>
</g>
<g>
</g>
<g>
</g>
<g>
</g>
<g>
</g>
<g>
</g>
<g>
</g>
<g>
</g>
</svg>
